<svg xmlns="http://www.w3.org/2000/svg" width="800" height="923" viewBox="0 0 800 923" version="1.1"><path d="M 203 94.600 C 201.075 94.821, 195.225 95.466, 190 96.035 C 181.233 96.988, 163 100.696, 163 101.525 C 163 101.722, 165.424 106.747, 168.387 112.691 C 177.998 131.973, 184.653 151.447, 190.365 177 C 193.040 188.966, 196.373 208.871, 197.549 219.900 L 198.231 226.300 191.390 225.599 C 166.476 223.046, 133.055 212.533, 104.622 198.302 C 97.538 194.757, 91.408 192.227, 90.999 192.678 C 90.590 193.130, 89.527 196.650, 88.636 200.500 C 84.035 220.392, 82.143 251.098, 83.808 278.841 C 85.307 303.835, 89.005 326.541, 91.565 326.477 C 92.079 326.464, 97.225 324.037, 103 321.084 C 123.182 310.763, 149.488 301.302, 171 296.626 C 182.113 294.211, 197.418 292.065, 198.071 292.831 C 198.912 293.815, 196.431 325.183, 193.471 351 C 187.262 405.146, 177.832 448.240, 167.539 469.500 C 165.143 474.450, 163.326 478.647, 163.501 478.827 C 164.659 480.013, 180.594 483.186, 191.500 484.403 C 227.160 488.380, 270.569 486.654, 293.171 480.360 L 298.842 478.781 295.419 472.554 C 284.388 452.485, 273.181 401.005, 267.106 342.500 C 264.619 318.548, 262.630 293.037, 263.204 292.463 C 263.965 291.702, 288.011 295.956, 300 298.973 C 320.274 304.073, 336.504 310.205, 357.260 320.606 C 364.279 324.123, 370.204 327, 370.427 327 C 371.121 327, 374.834 309.956, 376.200 300.500 C 378.302 285.951, 377.953 229.512, 375.671 215 C 373.682 202.344, 371.092 192, 369.913 192 C 369.495 192, 365.857 193.777, 361.827 195.949 C 344.162 205.470, 320.026 214.712, 299 220.005 C 286.246 223.216, 271.151 225.992, 266.419 225.997 L 263.337 226 264.686 214.750 C 269.475 174.804, 281.392 133.369, 295.442 107.806 L 298.981 101.368 289.741 99.192 C 284.658 97.996, 277.125 96.526, 273 95.928 C 265.666 94.863, 209.928 93.806, 203 94.600 M 541 94.595 C 539.075 94.813, 533.225 95.473, 528 96.061 C 522.775 96.650, 514.605 98.081, 509.845 99.241 L 501.191 101.351 506.528 111.925 C 520.528 139.667, 530.645 175.804, 535.314 214.750 L 536.663 226 533.581 225.997 C 528.849 225.992, 513.754 223.216, 501 220.005 C 479.974 214.712, 455.838 205.470, 438.173 195.949 C 434.143 193.777, 430.505 192, 430.087 192 C 428.888 192, 426.045 203.347, 424.217 215.430 C 422.066 229.652, 421.787 286.566, 423.800 300.500 C 425.127 309.686, 428.872 327, 429.532 327 C 429.733 327, 435.658 324.110, 442.699 320.577 C 469.289 307.236, 497.673 297.918, 523.500 294.052 C 527.350 293.476, 532.013 292.749, 533.861 292.436 L 537.223 291.868 536.550 301.184 C 530.842 380.200, 518.253 447.680, 504.581 472.554 L 501.158 478.781 506.829 480.360 C 529.431 486.654, 572.840 488.380, 608.500 484.403 C 619.727 483.151, 635.323 480.010, 636.586 478.747 C 636.810 478.524, 635.618 475.803, 633.937 472.700 C 623.508 453.445, 613.752 411.100, 607.049 356 C 604.974 338.937, 602.273 309.004, 601.862 298.500 L 601.627 292.500 606.063 292.816 C 613.709 293.362, 639.019 298.761, 650.513 302.299 C 665.259 306.837, 683.097 314.035, 696.500 320.855 C 702.550 323.934, 707.921 326.463, 708.435 326.476 C 708.949 326.489, 709.961 324.250, 710.684 321.500 C 718.450 291.951, 718.784 232.583, 711.364 200.500 C 710.473 196.650, 709.410 193.130, 709.001 192.678 C 708.592 192.227, 702.462 194.757, 695.378 198.302 C 666.945 212.533, 633.524 223.046, 608.610 225.599 L 601.769 226.300 602.439 219.900 C 606.624 179.943, 619.713 133.375, 633.891 108 C 635.581 104.975, 636.972 102.200, 636.982 101.833 C 637.006 100.939, 621.442 97.360, 611.500 95.973 C 603.725 94.889, 548.024 93.800, 541 94.595 M 196.404 100.058 C 186.010 101.066, 169.820 104.035, 170.204 104.862 C 170.367 105.213, 172.378 109.373, 174.673 114.107 C 186.685 138.883, 196.547 175.215, 201.499 212.936 C 203.148 225.498, 203.404 232.003, 202.250 231.995 C 201.838 231.992, 195.259 231.073, 187.631 229.953 C 160.992 226.042, 133.436 217.535, 108.070 205.391 C 100.683 201.854, 94.312 199.307, 93.912 199.730 C 92.645 201.072, 90.060 218.960, 88.889 234.500 C 86.997 259.606, 89.091 301.483, 92.957 315.842 L 94.035 319.844 107.432 313.478 C 136.132 299.841, 168.412 290.501, 197.330 287.467 L 204.160 286.750 203.621 291.125 C 203.324 293.531, 202.825 300, 202.512 305.500 C 201.628 321.027, 198.155 354.660, 195.406 374.317 C 189.466 416.799, 181.543 450.459, 173.003 469.493 C 170.438 475.210, 170.309 475.957, 171.813 476.384 C 193.360 482.496, 251.356 483.294, 282.551 477.909 C 285.879 477.334, 289.137 476.533, 289.791 476.129 C 290.654 475.596, 290.001 473.072, 287.417 466.947 C 277.721 443.968, 268.361 398.417, 262.562 346 C 260.877 330.765, 258 295.618, 258 290.266 L 258 286.742 264.250 287.442 C 294.629 290.845, 324.114 299.391, 352.907 313.140 C 360.830 316.924, 367.428 319.903, 367.568 319.760 C 368.356 318.953, 371.013 302.928, 371.951 293.320 C 373.360 278.874, 373.354 240.033, 371.940 225.680 C 370.902 215.150, 368.474 200.141, 367.680 199.347 C 367.482 199.149, 362.061 201.487, 355.634 204.542 C 325.973 218.641, 293.243 228.203, 263.699 231.401 L 257.897 232.030 258.535 225.765 C 262.876 183.088, 273.507 141.507, 287.301 113.248 C 289.516 108.709, 291.096 104.763, 290.811 104.478 C 289.889 103.556, 275.786 101.193, 264.576 100.082 C 252.327 98.869, 208.823 98.853, 196.404 100.058 M 534 100.135 C 524.642 101.091, 510.023 103.643, 509.203 104.464 C 508.916 104.751, 510.970 109.827, 513.769 115.743 C 526.234 142.097, 536.093 179.534, 540.433 217 C 541.294 224.425, 541.998 230.853, 541.999 231.284 C 542 232.145, 536.282 231.589, 522.500 229.386 C 495.722 225.107, 471.288 217.323, 444.104 204.413 C 437.836 201.436, 432.586 199, 432.437 199 C 431.791 199, 429.821 210.370, 428.458 221.953 C 426.693 236.963, 426.462 277.059, 428.047 293.297 C 428.987 302.923, 431.643 318.953, 432.432 319.760 C 432.572 319.903, 439.170 316.910, 447.093 313.108 C 475.461 299.497, 505.400 290.830, 535.750 287.440 L 542 286.742 542 290.266 C 542 295.618, 539.123 330.765, 537.438 346 C 531.627 398.525, 522.252 444.017, 512.446 467.270 C 509.958 473.168, 509.345 475.595, 510.209 476.129 C 510.863 476.533, 514.121 477.334, 517.449 477.909 C 545.524 482.756, 595.046 482.747, 621 477.891 C 630.668 476.083, 630.252 476.416, 628.100 472.186 C 622.538 461.256, 614.840 434.012, 610.103 408.500 C 604.699 379.394, 599.086 333.560, 597.488 305.500 C 597.175 300, 596.676 293.531, 596.379 291.125 L 595.840 286.750 602.670 287.458 C 631.566 290.452, 663.925 299.881, 693.510 313.927 L 705.966 319.841 706.901 316.170 C 711.331 298.786, 713.145 261.837, 710.983 233 C 709.913 218.729, 707.308 201.022, 706.088 199.730 C 705.688 199.307, 699.317 201.854, 691.930 205.391 C 666.564 217.535, 639.008 226.042, 612.369 229.953 C 604.741 231.073, 598.096 231.992, 597.602 231.995 C 596.404 232.002, 597.554 217.753, 600.060 201.544 C 605.106 168.905, 614.476 136.509, 625.382 114 C 627.647 109.325, 629.633 105.213, 629.796 104.862 C 630.202 103.987, 614.706 101.279, 602.144 100.030 C 589.965 98.819, 546.214 98.886, 534 100.135 M 199 101.667 C 191.906 102.327, 174.946 104.916, 174.038 105.476 C 173.586 105.756, 175.380 110.833, 178.024 116.759 C 190.146 143.926, 199.113 178.038, 203.576 213.962 C 205.231 227.280, 205.390 234, 204.051 234 C 203.529 234, 197.792 233.308, 191.301 232.463 C 162.246 228.678, 135.549 220.528, 104.118 205.846 C 99.508 203.693, 95.542 202.125, 95.305 202.362 C 93.183 204.484, 90 238.766, 90 259.500 C 90 280.081, 93.181 314.514, 95.276 316.609 C 95.496 316.830, 101.262 314.359, 108.089 311.119 C 136.374 297.694, 170.706 287.922, 198.406 285.412 L 206.040 284.721 205.503 291.610 C 205.208 295.400, 204.274 307.500, 203.428 318.500 C 198.641 380.730, 187.177 442.165, 175.362 468.904 C 174.049 471.876, 173.111 474.445, 173.279 474.612 C 174.271 475.605, 192.926 478.035, 207.500 479.071 C 231.962 480.810, 260.924 479.575, 282.725 475.863 L 288.950 474.803 287.531 472.059 C 274.412 446.691, 260.623 369.008, 256.413 296.750 L 255.728 285 258.614 285.018 C 263.195 285.047, 280.591 287.689, 291.500 290.012 C 312.699 294.526, 333.841 301.809, 356.410 312.374 C 361.861 314.926, 366.438 316.895, 366.583 316.750 C 366.727 316.606, 367.586 311.541, 368.491 305.494 C 370.793 290.111, 371.851 262.026, 370.908 241.295 C 370.110 223.735, 367.410 202, 366.027 202 C 365.623 202, 360.097 204.470, 353.746 207.488 C 325.679 220.830, 292.114 230.386, 262.250 233.537 C 254.878 234.315, 255.362 236.025, 257.567 217 C 261.765 180.758, 270.276 147.473, 282.702 118.698 C 285.742 111.657, 288.064 105.731, 287.861 105.528 C 287.658 105.325, 282.769 104.391, 276.996 103.452 C 269.016 102.155, 258.948 101.687, 235 101.497 C 217.675 101.360, 201.475 101.437, 199 101.667 M 534.500 102.006 C 521.072 103.641, 512 105.250, 512 105.997 C 512 106.412, 513.512 110.069, 515.360 114.125 C 529.484 145.132, 539.940 187.036, 543.487 226.856 L 544.142 234.213 537.821 233.545 C 507.867 230.381, 474.348 220.843, 446.254 207.488 C 439.903 204.470, 434.377 202, 433.973 202 C 432.590 202, 429.890 223.735, 429.092 241.295 C 428.149 262.026, 429.207 290.111, 431.509 305.494 C 432.414 311.541, 433.273 316.606, 433.417 316.750 C 433.562 316.895, 438.139 314.926, 443.590 312.374 C 466.159 301.809, 487.301 294.526, 508.500 290.012 C 519.409 287.689, 536.805 285.047, 541.386 285.018 L 544.272 285 543.593 296.750 C 539.680 364.531, 527.437 436.466, 514.657 466.769 L 511.253 474.839 517.377 475.881 C 539.079 479.574, 568.088 480.806, 592.500 479.071 C 606.626 478.067, 625.722 475.611, 626.655 474.679 C 626.786 474.547, 625.364 470.628, 623.494 465.970 C 611.464 435.993, 600.197 373.010, 596.041 312.500 C 595.475 304.250, 594.764 294.624, 594.463 291.108 L 593.915 284.716 601.572 285.410 C 629.295 287.923, 663.617 297.690, 691.911 311.119 C 698.738 314.359, 704.504 316.830, 704.724 316.609 C 706.819 314.514, 710 280.081, 710 259.500 C 710 238.766, 706.817 204.484, 704.695 202.362 C 704.458 202.125, 700.492 203.693, 695.882 205.846 C 672.333 216.846, 654.579 223.118, 633 228.061 C 622.904 230.374, 600.281 234, 595.949 234 C 594.597 234, 594.773 227.273, 596.484 213.470 C 600.907 177.798, 609.809 144.025, 621.976 116.759 C 624.620 110.833, 626.416 105.757, 625.966 105.479 C 625.516 105.201, 620.727 104.251, 615.324 103.368 C 604.048 101.525, 546.429 100.554, 534.500 102.006 M 254.500 499.612 C 195.541 508.189, 149.758 552.298, 138.365 611.500 C 136.045 623.551, 136.045 646.196, 138.365 659 C 148.478 714.828, 190.465 757.607, 247 769.684 C 258.546 772.151, 288.066 772.158, 299 769.696 C 309.306 767.377, 321 763.846, 321 763.054 C 321 762.693, 318.863 761.364, 316.250 760.100 C 299.807 752.142, 278.574 734.277, 266.808 718.500 C 245.393 689.785, 235.794 653.841, 240.103 618.500 C 245.622 573.235, 274.251 532.039, 314.198 511.880 C 317.882 510.021, 320.920 508.199, 320.948 507.832 C 321.010 507.035, 311.083 503.688, 302 501.443 C 295.661 499.876, 261.687 498.566, 254.500 499.612 M 290 509.634 C 249.035 515.832, 218.706 535.134, 200.650 566.500 C 194.699 576.838, 188.556 595.685, 186.436 610.113 C 184.133 625.781, 184.904 656.438, 187.929 669.500 C 190.995 682.741, 193.705 690.429, 198.847 700.481 C 214.281 730.652, 239.522 749.360, 277.083 758.469 C 287.904 761.093, 306.730 763.402, 312 762.752 C 314.534 762.439, 313.941 762.276, 309.849 762.160 C 294.703 761.731, 267.987 755.255, 253.117 748.407 C 231.768 738.576, 212.883 720.496, 202.556 700 C 192.830 680.698, 188.253 656.011, 189.302 628.500 C 190.496 597.172, 197.746 574.405, 212.955 554.220 C 231.740 529.290, 262.826 513.542, 302 509.108 C 308.228 508.403, 308.652 508.254, 304.500 508.228 C 301.750 508.210, 295.225 508.843, 290 509.634 M 504.588 521.728 C 527.078 560.370, 566.643 626.977, 567.113 626.987 C 567.450 626.994, 568.017 617.888, 568.373 606.750 C 568.729 595.612, 569.292 580.869, 569.625 573.988 L 570.230 561.475 536.946 539.488 C 518.639 527.394, 503.214 517.326, 502.669 517.113 C 502.123 516.900, 502.987 518.977, 504.588 521.728 M 609.500 535.125 C 595.200 544.956, 580.688 555.013, 577.250 557.475 L 571 561.951 571.032 594.726 C 571.060 623.303, 571.246 627.259, 572.488 625.619 C 574.911 622.419, 636.202 517.866, 635.841 517.550 C 635.653 517.386, 623.800 525.295, 609.500 535.125 M 612.476 562.727 C 598.830 586.802, 584.862 611.450, 581.435 617.500 C 578.008 623.550, 575.369 628.673, 575.571 628.885 C 575.844 629.173, 622.645 602.273, 630.734 597.179 C 631.585 596.643, 632.911 584.506, 635.008 558.059 C 636.681 536.970, 637.877 519.544, 637.668 519.334 C 637.458 519.125, 626.122 538.651, 612.476 562.727 M 501.290 524 C 501.591 526.475, 503.520 543.807, 505.576 562.517 L 509.314 596.533 535.835 612.755 C 550.422 621.677, 562.529 628.804, 562.741 628.592 C 562.952 628.381, 560.110 622.874, 556.424 616.354 C 517.298 547.150, 502.574 521.343, 501.736 520.500 C 501.075 519.836, 500.925 521.014, 501.290 524 M 471 615.645 C 450.925 625.322, 434.185 633.523, 433.799 633.870 C 432.849 634.725, 546.829 634.105, 554.971 633.211 L 561.442 632.500 535.238 615.250 C 520.825 605.763, 508.688 598.012, 508.267 598.026 C 507.845 598.040, 491.075 605.968, 471 615.645 M 604.692 615.250 L 577.089 632.500 583.660 633.258 C 587.274 633.675, 615.941 633.900, 647.365 633.758 L 704.500 633.500 669.256 615.750 C 649.871 605.987, 633.625 598, 633.153 598 C 632.682 598, 619.874 605.763, 604.692 615.250 M 435.098 636.432 C 435.853 637.186, 507.456 667.287, 508.500 667.289 C 509.050 667.290, 521.200 660.588, 535.500 652.395 L 561.500 637.500 525 636.887 C 478.116 636.100, 434.546 635.879, 435.098 636.432 M 604 636.975 C 586.416 637.323, 578.005 637.825, 579 638.465 C 583.342 641.259, 631.663 667.243, 632.595 667.284 C 633.573 667.328, 699.314 638.955, 703 636.898 C 704.563 636.026, 649.761 636.068, 604 636.975 M 557.500 643.651 C 531.835 656.778, 509 669.373, 509 670.402 C 509 671.094, 507.178 688.896, 504.952 709.962 C 502.726 731.027, 501.038 748.909, 501.202 749.699 C 501.455 750.921, 560.632 647.748, 562.544 642.750 C 563.372 640.588, 563.549 640.557, 557.500 643.651 M 578.016 646.750 C 605.817 696.590, 637.569 751.729, 637.812 750.585 C 638.124 749.120, 633.558 684.240, 632.438 674.215 L 631.847 668.931 603.931 654.965 C 588.576 647.284, 575.743 641, 575.411 641 C 575.080 641, 576.252 643.587, 578.016 646.750 M 555.253 662.750 C 534.132 698.472, 502.154 753, 502.327 752.999 C 502.422 752.999, 517.575 742.029, 536 728.623 L 569.500 704.248 569.303 695.874 C 568.571 664.710, 567.675 644, 567.059 644 C 566.663 644, 561.350 652.438, 555.253 662.750 M 571 673.842 L 571 703.685 603.169 728.003 C 620.862 741.378, 635.091 751.679, 634.789 750.893 C 634.488 750.108, 621.277 727.423, 605.432 700.483 C 589.587 673.542, 575.695 649.816, 574.561 647.758 C 573.428 645.700, 572.163 644.013, 571.750 644.008 C 571.337 644.004, 571 657.429, 571 673.842" stroke="none" fill="#f0d688" fill-rule="evenodd"/><path d="M 15 274.800 C 15 446.449, 15.355 539.164, 16.046 548.050 C 26.961 688.335, 109.414 809.930, 234.368 870.012 C 273.812 888.978, 312.404 900.197, 357 905.661 C 377.282 908.146, 422.695 908.148, 443 905.664 C 557.265 891.688, 656.320 830.889, 719.419 736 C 757.177 679.221, 778.603 616.818, 783.954 548.050 C 784.645 539.164, 785 446.449, 785 274.800 L 785 15 400 15 L 15 15 15 274.800 M 203 94.600 C 201.075 94.821, 195.225 95.466, 190 96.035 C 181.233 96.988, 163 100.696, 163 101.525 C 163 101.722, 165.424 106.747, 168.387 112.691 C 177.998 131.973, 184.653 151.447, 190.365 177 C 193.040 188.966, 196.373 208.871, 197.549 219.900 L 198.231 226.300 191.390 225.599 C 166.476 223.046, 133.055 212.533, 104.622 198.302 C 97.538 194.757, 91.408 192.227, 90.999 192.678 C 90.590 193.130, 89.527 196.650, 88.636 200.500 C 84.035 220.392, 82.143 251.098, 83.808 278.841 C 85.307 303.835, 89.005 326.541, 91.565 326.477 C 92.079 326.464, 97.225 324.037, 103 321.084 C 123.182 310.763, 149.488 301.302, 171 296.626 C 182.113 294.211, 197.418 292.065, 198.071 292.831 C 198.912 293.815, 196.431 325.183, 193.471 351 C 187.262 405.146, 177.832 448.240, 167.539 469.500 C 165.143 474.450, 163.326 478.647, 163.501 478.827 C 164.659 480.013, 180.594 483.186, 191.500 484.403 C 227.160 488.380, 270.569 486.654, 293.171 480.360 L 298.842 478.781 295.419 472.554 C 284.388 452.485, 273.181 401.005, 267.106 342.500 C 264.619 318.548, 262.630 293.037, 263.204 292.463 C 263.965 291.702, 288.011 295.956, 300 298.973 C 320.274 304.073, 336.504 310.205, 357.260 320.606 C 364.279 324.123, 370.204 327, 370.427 327 C 371.121 327, 374.834 309.956, 376.200 300.500 C 378.302 285.951, 377.953 229.512, 375.671 215 C 373.682 202.344, 371.092 192, 369.913 192 C 369.495 192, 365.857 193.777, 361.827 195.949 C 344.162 205.470, 320.026 214.712, 299 220.005 C 286.246 223.216, 271.151 225.992, 266.419 225.997 L 263.337 226 264.686 214.750 C 269.475 174.804, 281.392 133.369, 295.442 107.806 L 298.981 101.368 289.741 99.192 C 284.658 97.996, 277.125 96.526, 273 95.928 C 265.666 94.863, 209.928 93.806, 203 94.600 M 541 94.595 C 539.075 94.813, 533.225 95.473, 528 96.061 C 522.775 96.650, 514.605 98.081, 509.845 99.241 L 501.191 101.351 506.528 111.925 C 520.528 139.667, 530.645 175.804, 535.314 214.750 L 536.663 226 533.581 225.997 C 528.849 225.992, 513.754 223.216, 501 220.005 C 479.974 214.712, 455.838 205.470, 438.173 195.949 C 434.143 193.777, 430.505 192, 430.087 192 C 428.888 192, 426.045 203.347, 424.217 215.430 C 422.066 229.652, 421.787 286.566, 423.800 300.500 C 425.127 309.686, 428.872 327, 429.532 327 C 429.733 327, 435.658 324.110, 442.699 320.577 C 469.289 307.236, 497.673 297.918, 523.500 294.052 C 527.350 293.476, 532.013 292.749, 533.861 292.436 L 537.223 291.868 536.550 301.184 C 530.842 380.200, 518.253 447.680, 504.581 472.554 L 501.158 478.781 506.829 480.360 C 529.431 486.654, 572.840 488.380, 608.500 484.403 C 619.727 483.151, 635.323 480.010, 636.586 478.747 C 636.810 478.524, 635.618 475.803, 633.937 472.700 C 623.508 453.445, 613.752 411.100, 607.049 356 C 604.974 338.937, 602.273 309.004, 601.862 298.500 L 601.627 292.500 606.063 292.816 C 613.709 293.362, 639.019 298.761, 650.513 302.299 C 665.259 306.837, 683.097 314.035, 696.500 320.855 C 702.550 323.934, 707.921 326.463, 708.435 326.476 C 708.949 326.489, 709.961 324.250, 710.684 321.500 C 718.450 291.951, 718.784 232.583, 711.364 200.500 C 710.473 196.650, 709.410 193.130, 709.001 192.678 C 708.592 192.227, 702.462 194.757, 695.378 198.302 C 666.945 212.533, 633.524 223.046, 608.610 225.599 L 601.769 226.300 602.439 219.900 C 606.624 179.943, 619.713 133.375, 633.891 108 C 635.581 104.975, 636.972 102.200, 636.982 101.833 C 637.006 100.939, 621.442 97.360, 611.500 95.973 C 603.725 94.889, 548.024 93.800, 541 94.595 M 196.404 100.058 C 186.010 101.066, 169.820 104.035, 170.204 104.862 C 170.367 105.213, 172.378 109.373, 174.673 114.107 C 186.685 138.883, 196.547 175.215, 201.499 212.936 C 203.148 225.498, 203.404 232.003, 202.250 231.995 C 201.838 231.992, 195.259 231.073, 187.631 229.953 C 160.992 226.042, 133.436 217.535, 108.070 205.391 C 100.683 201.854, 94.312 199.307, 93.912 199.730 C 92.645 201.072, 90.060 218.960, 88.889 234.500 C 86.997 259.606, 89.091 301.483, 92.957 315.842 L 94.035 319.844 107.432 313.478 C 136.132 299.841, 168.412 290.501, 197.330 287.467 L 204.160 286.750 203.621 291.125 C 203.324 293.531, 202.825 300, 202.512 305.500 C 201.628 321.027, 198.155 354.660, 195.406 374.317 C 189.466 416.799, 181.543 450.459, 173.003 469.493 C 170.438 475.210, 170.309 475.957, 171.813 476.384 C 193.360 482.496, 251.356 483.294, 282.551 477.909 C 285.879 477.334, 289.137 476.533, 289.791 476.129 C 290.654 475.596, 290.001 473.072, 287.417 466.947 C 277.721 443.968, 268.361 398.417, 262.562 346 C 260.877 330.765, 258 295.618, 258 290.266 L 258 286.742 264.250 287.442 C 294.629 290.845, 324.114 299.391, 352.907 313.140 C 360.830 316.924, 367.428 319.903, 367.568 319.760 C 368.356 318.953, 371.013 302.928, 371.951 293.320 C 373.360 278.874, 373.354 240.033, 371.940 225.680 C 370.902 215.150, 368.474 200.141, 367.680 199.347 C 367.482 199.149, 362.061 201.487, 355.634 204.542 C 325.973 218.641, 293.243 228.203, 263.699 231.401 L 257.897 232.030 258.535 225.765 C 262.876 183.088, 273.507 141.507, 287.301 113.248 C 289.516 108.709, 291.096 104.763, 290.811 104.478 C 289.889 103.556, 275.786 101.193, 264.576 100.082 C 252.327 98.869, 208.823 98.853, 196.404 100.058 M 534 100.135 C 524.642 101.091, 510.023 103.643, 509.203 104.464 C 508.916 104.751, 510.970 109.827, 513.769 115.743 C 526.234 142.097, 536.093 179.534, 540.433 217 C 541.294 224.425, 541.998 230.853, 541.999 231.284 C 542 232.145, 536.282 231.589, 522.500 229.386 C 495.722 225.107, 471.288 217.323, 444.104 204.413 C 437.836 201.436, 432.586 199, 432.437 199 C 431.791 199, 429.821 210.370, 428.458 221.953 C 426.693 236.963, 426.462 277.059, 428.047 293.297 C 428.987 302.923, 431.643 318.953, 432.432 319.760 C 432.572 319.903, 439.170 316.910, 447.093 313.108 C 475.461 299.497, 505.400 290.830, 535.750 287.440 L 542 286.742 542 290.266 C 542 295.618, 539.123 330.765, 537.438 346 C 531.627 398.525, 522.252 444.017, 512.446 467.270 C 509.958 473.168, 509.345 475.595, 510.209 476.129 C 510.863 476.533, 514.121 477.334, 517.449 477.909 C 545.524 482.756, 595.046 482.747, 621 477.891 C 630.668 476.083, 630.252 476.416, 628.100 472.186 C 622.538 461.256, 614.840 434.012, 610.103 408.500 C 604.699 379.394, 599.086 333.560, 597.488 305.500 C 597.175 300, 596.676 293.531, 596.379 291.125 L 595.840 286.750 602.670 287.458 C 631.566 290.452, 663.925 299.881, 693.510 313.927 L 705.966 319.841 706.901 316.170 C 711.331 298.786, 713.145 261.837, 710.983 233 C 709.913 218.729, 707.308 201.022, 706.088 199.730 C 705.688 199.307, 699.317 201.854, 691.930 205.391 C 666.564 217.535, 639.008 226.042, 612.369 229.953 C 604.741 231.073, 598.096 231.992, 597.602 231.995 C 596.404 232.002, 597.554 217.753, 600.060 201.544 C 605.106 168.905, 614.476 136.509, 625.382 114 C 627.647 109.325, 629.633 105.213, 629.796 104.862 C 630.202 103.987, 614.706 101.279, 602.144 100.030 C 589.965 98.819, 546.214 98.886, 534 100.135 M 199 101.667 C 191.906 102.327, 174.946 104.916, 174.038 105.476 C 173.586 105.756, 175.380 110.833, 178.024 116.759 C 190.146 143.926, 199.113 178.038, 203.576 213.962 C 205.231 227.280, 205.390 234, 204.051 234 C 203.529 234, 197.792 233.308, 191.301 232.463 C 162.246 228.678, 135.549 220.528, 104.118 205.846 C 99.508 203.693, 95.542 202.125, 95.305 202.362 C 93.183 204.484, 90 238.766, 90 259.500 C 90 280.081, 93.181 314.514, 95.276 316.609 C 95.496 316.830, 101.262 314.359, 108.089 311.119 C 136.374 297.694, 170.706 287.922, 198.406 285.412 L 206.040 284.721 205.503 291.610 C 205.208 295.400, 204.274 307.500, 203.428 318.500 C 198.641 380.730, 187.177 442.165, 175.362 468.904 C 174.049 471.876, 173.111 474.445, 173.279 474.612 C 174.271 475.605, 192.926 478.035, 207.500 479.071 C 231.962 480.810, 260.924 479.575, 282.725 475.863 L 288.950 474.803 287.531 472.059 C 274.412 446.691, 260.623 369.008, 256.413 296.750 L 255.728 285 258.614 285.018 C 263.195 285.047, 280.591 287.689, 291.500 290.012 C 312.699 294.526, 333.841 301.809, 356.410 312.374 C 361.861 314.926, 366.438 316.895, 366.583 316.750 C 366.727 316.606, 367.586 311.541, 368.491 305.494 C 370.793 290.111, 371.851 262.026, 370.908 241.295 C 370.110 223.735, 367.410 202, 366.027 202 C 365.623 202, 360.097 204.470, 353.746 207.488 C 325.679 220.830, 292.114 230.386, 262.250 233.537 C 254.878 234.315, 255.362 236.025, 257.567 217 C 261.765 180.758, 270.276 147.473, 282.702 118.698 C 285.742 111.657, 288.064 105.731, 287.861 105.528 C 287.658 105.325, 282.769 104.391, 276.996 103.452 C 269.016 102.155, 258.948 101.687, 235 101.497 C 217.675 101.360, 201.475 101.437, 199 101.667 M 534.500 102.006 C 521.072 103.641, 512 105.250, 512 105.997 C 512 106.412, 513.512 110.069, 515.360 114.125 C 529.484 145.132, 539.940 187.036, 543.487 226.856 L 544.142 234.213 537.821 233.545 C 507.867 230.381, 474.348 220.843, 446.254 207.488 C 439.903 204.470, 434.377 202, 433.973 202 C 432.590 202, 429.890 223.735, 429.092 241.295 C 428.149 262.026, 429.207 290.111, 431.509 305.494 C 432.414 311.541, 433.273 316.606, 433.417 316.750 C 433.562 316.895, 438.139 314.926, 443.590 312.374 C 466.159 301.809, 487.301 294.526, 508.500 290.012 C 519.409 287.689, 536.805 285.047, 541.386 285.018 L 544.272 285 543.593 296.750 C 539.680 364.531, 527.437 436.466, 514.657 466.769 L 511.253 474.839 517.377 475.881 C 539.079 479.574, 568.088 480.806, 592.500 479.071 C 606.626 478.067, 625.722 475.611, 626.655 474.679 C 626.786 474.547, 625.364 470.628, 623.494 465.970 C 611.464 435.993, 600.197 373.010, 596.041 312.500 C 595.475 304.250, 594.764 294.624, 594.463 291.108 L 593.915 284.716 601.572 285.410 C 629.295 287.923, 663.617 297.690, 691.911 311.119 C 698.738 314.359, 704.504 316.830, 704.724 316.609 C 706.819 314.514, 710 280.081, 710 259.500 C 710 238.766, 706.817 204.484, 704.695 202.362 C 704.458 202.125, 700.492 203.693, 695.882 205.846 C 672.333 216.846, 654.579 223.118, 633 228.061 C 622.904 230.374, 600.281 234, 595.949 234 C 594.597 234, 594.773 227.273, 596.484 213.470 C 600.907 177.798, 609.809 144.025, 621.976 116.759 C 624.620 110.833, 626.416 105.757, 625.966 105.479 C 625.516 105.201, 620.727 104.251, 615.324 103.368 C 604.048 101.525, 546.429 100.554, 534.500 102.006 M 254.500 499.612 C 195.541 508.189, 149.758 552.298, 138.365 611.500 C 136.045 623.551, 136.045 646.196, 138.365 659 C 148.478 714.828, 190.465 757.607, 247 769.684 C 258.546 772.151, 288.066 772.158, 299 769.696 C 309.306 767.377, 321 763.846, 321 763.054 C 321 762.693, 318.863 761.364, 316.250 760.100 C 299.807 752.142, 278.574 734.277, 266.808 718.500 C 245.393 689.785, 235.794 653.841, 240.103 618.500 C 245.622 573.235, 274.251 532.039, 314.198 511.880 C 317.882 510.021, 320.920 508.199, 320.948 507.832 C 321.010 507.035, 311.083 503.688, 302 501.443 C 295.661 499.876, 261.687 498.566, 254.500 499.612 M 290 509.634 C 249.035 515.832, 218.706 535.134, 200.650 566.500 C 194.699 576.838, 188.556 595.685, 186.436 610.113 C 184.133 625.781, 184.904 656.438, 187.929 669.500 C 190.995 682.741, 193.705 690.429, 198.847 700.481 C 214.281 730.652, 239.522 749.360, 277.083 758.469 C 287.904 761.093, 306.730 763.402, 312 762.752 C 314.534 762.439, 313.941 762.276, 309.849 762.160 C 294.703 761.731, 267.987 755.255, 253.117 748.407 C 231.768 738.576, 212.883 720.496, 202.556 700 C 192.830 680.698, 188.253 656.011, 189.302 628.500 C 190.496 597.172, 197.746 574.405, 212.955 554.220 C 231.740 529.290, 262.826 513.542, 302 509.108 C 308.228 508.403, 308.652 508.254, 304.500 508.228 C 301.750 508.210, 295.225 508.843, 290 509.634 M 504.588 521.728 C 527.078 560.370, 566.643 626.977, 567.113 626.987 C 567.450 626.994, 568.017 617.888, 568.373 606.750 C 568.729 595.612, 569.292 580.869, 569.625 573.988 L 570.230 561.475 536.946 539.488 C 518.639 527.394, 503.214 517.326, 502.669 517.113 C 502.123 516.900, 502.987 518.977, 504.588 521.728 M 609.500 535.125 C 595.200 544.956, 580.688 555.013, 577.250 557.475 L 571 561.951 571.032 594.726 C 571.060 623.303, 571.246 627.259, 572.488 625.619 C 574.911 622.419, 636.202 517.866, 635.841 517.550 C 635.653 517.386, 623.800 525.295, 609.500 535.125 M 612.476 562.727 C 598.830 586.802, 584.862 611.450, 581.435 617.500 C 578.008 623.550, 575.369 628.673, 575.571 628.885 C 575.844 629.173, 622.645 602.273, 630.734 597.179 C 631.585 596.643, 632.911 584.506, 635.008 558.059 C 636.681 536.970, 637.877 519.544, 637.668 519.334 C 637.458 519.125, 626.122 538.651, 612.476 562.727 M 501.290 524 C 501.591 526.475, 503.520 543.807, 505.576 562.517 L 509.314 596.533 535.835 612.755 C 550.422 621.677, 562.529 628.804, 562.741 628.592 C 562.952 628.381, 560.110 622.874, 556.424 616.354 C 517.298 547.150, 502.574 521.343, 501.736 520.500 C 501.075 519.836, 500.925 521.014, 501.290 524 M 471 615.645 C 450.925 625.322, 434.185 633.523, 433.799 633.870 C 432.849 634.725, 546.829 634.105, 554.971 633.211 L 561.442 632.500 535.238 615.250 C 520.825 605.763, 508.688 598.012, 508.267 598.026 C 507.845 598.040, 491.075 605.968, 471 615.645 M 604.692 615.250 L 577.089 632.500 583.660 633.258 C 587.274 633.675, 615.941 633.900, 647.365 633.758 L 704.500 633.500 669.256 615.750 C 649.871 605.987, 633.625 598, 633.153 598 C 632.682 598, 619.874 605.763, 604.692 615.250 M 435.098 636.432 C 435.853 637.186, 507.456 667.287, 508.500 667.289 C 509.050 667.290, 521.200 660.588, 535.500 652.395 L 561.500 637.500 525 636.887 C 478.116 636.100, 434.546 635.879, 435.098 636.432 M 604 636.975 C 586.416 637.323, 578.005 637.825, 579 638.465 C 583.342 641.259, 631.663 667.243, 632.595 667.284 C 633.573 667.328, 699.314 638.955, 703 636.898 C 704.563 636.026, 649.761 636.068, 604 636.975 M 557.500 643.651 C 531.835 656.778, 509 669.373, 509 670.402 C 509 671.094, 507.178 688.896, 504.952 709.962 C 502.726 731.027, 501.038 748.909, 501.202 749.699 C 501.455 750.921, 560.632 647.748, 562.544 642.750 C 563.372 640.588, 563.549 640.557, 557.500 643.651 M 578.016 646.750 C 605.817 696.590, 637.569 751.729, 637.812 750.585 C 638.124 749.120, 633.558 684.240, 632.438 674.215 L 631.847 668.931 603.931 654.965 C 588.576 647.284, 575.743 641, 575.411 641 C 575.080 641, 576.252 643.587, 578.016 646.750 M 555.253 662.750 C 534.132 698.472, 502.154 753, 502.327 752.999 C 502.422 752.999, 517.575 742.029, 536 728.623 L 569.500 704.248 569.303 695.874 C 568.571 664.710, 567.675 644, 567.059 644 C 566.663 644, 561.350 652.438, 555.253 662.750 M 571 673.842 L 571 703.685 603.169 728.003 C 620.862 741.378, 635.091 751.679, 634.789 750.893 C 634.488 750.108, 621.277 727.423, 605.432 700.483 C 589.587 673.542, 575.695 649.816, 574.561 647.758 C 573.428 645.700, 572.163 644.013, 571.750 644.008 C 571.337 644.004, 571 657.429, 571 673.842" stroke="none" fill="#ca3433" fill-rule="evenodd"/></svg>