<svg xmlns="http://www.w3.org/2000/svg" width="226" height="200" viewBox="0 0 226 200" version="1.1"><path d="M 3.035 3.934 C 1.565 6.682, 1.753 9.551, 3.500 11 C 4.810 12.088, 5.031 24.014, 5.245 105.372 L 5.489 198.500 5.750 106.045 C 5.918 46.420, 6.364 13.236, 7.005 12.595 C 7.665 11.935, 8 42.994, 8 104.800 C 8 166.267, 8.340 198, 9 198 C 9.659 198, 10 166.480, 10 105.441 C 10 43.990, 10.336 13.090, 11 13.500 C 11.652 13.903, 12.080 46.177, 12.230 106.309 C 12.356 157.014, 12.590 188.488, 12.749 176.250 L 13.038 154 118.264 154 L 223.489 154 188.745 119.245 C 169.635 100.129, 154 84.040, 154 83.491 C 154 82.942, 169.546 66.970, 188.547 47.997 L 223.094 13.500 116.797 12.989 C 58.334 12.707, 10.297 12.370, 10.050 12.239 C 9.803 12.107, 10.140 11.460, 10.800 10.800 C 12.347 9.253, 12.347 4.747, 10.800 3.200 C 8.899 1.299, 4.208 1.742, 3.035 3.934 M 4.655 4.829 C 3.745 5.835, 3 6.927, 3 7.257 C 3 8.168, 6.026 11, 7 11 C 8.111 11, 11 8.111, 11 7 C 11 5.932, 8.129 3, 7.084 3 C 6.658 3, 5.565 3.823, 4.655 4.829 M 14 48.487 L 14 83 48.013 83 L 82.026 83 81.763 48.750 L 81.500 14.500 47.750 14.237 L 14 13.973 14 48.487 M 83.237 118.250 L 83.500 152.500 151.250 152.757 C 188.512 152.898, 219 152.671, 219 152.251 C 219 151.832, 203.810 136.304, 185.245 117.744 L 151.489 84 117.231 84 L 82.974 84 83.237 118.250" stroke="none" fill="#cb0b0f" fill-rule="evenodd"/><path d="M 5.750 1.662 C 6.438 1.940, 7.563 1.940, 8.250 1.662 C 8.938 1.385, 8.375 1.158, 7 1.158 C 5.625 1.158, 5.063 1.385, 5.750 1.662 M 1.972 4.052 C 1.368 5.181, 1.014 6.785, 1.187 7.616 C 1.359 8.447, 1.995 7.523, 2.601 5.563 C 3.838 1.558, 3.606 1, 1.972 4.052 M 4.655 4.829 C 3.745 5.835, 3 6.927, 3 7.257 C 3 8.168, 6.026 11, 7 11 C 8.111 11, 11 8.111, 11 7 C 11 5.932, 8.129 3, 7.084 3 C 6.658 3, 5.565 3.823, 4.655 4.829 M 12.158 7 C 12.158 8.375, 12.385 8.938, 12.662 8.250 C 12.940 7.563, 12.940 6.438, 12.662 5.750 C 12.385 5.063, 12.158 5.625, 12.158 7 M 2.745 11.096 C 3.713 12.338, 4.046 33.320, 4.245 105.596 C 4.413 166.905, 4.840 198.415, 5.500 198.250 C 6.153 198.087, 6.673 165.766, 7 105.050 C 7.275 53.927, 7.165 12.435, 6.755 12.845 C 6.346 13.254, 5.893 55.194, 5.750 106.045 L 5.489 198.500 5.245 105.372 C 5.015 18.038, 4.891 12.160, 3.250 10.872 C 1.701 9.657, 1.643 9.683, 2.745 11.096 M 117.420 12.750 L 223.340 13.009 220.920 15.755 L 218.500 18.500 221.250 16.076 C 222.763 14.742, 224 13.280, 224 12.826 C 224 12.372, 176.188 12.110, 117.750 12.245 L 11.500 12.491 117.420 12.750 M 11 105.845 C 11.328 166.615, 11.844 198.500, 12.500 198.500 C 13.128 198.500, 13.600 190.404, 13.770 176.750 L 14.039 155 119.020 155 C 176.759 155, 224 154.660, 224 154.245 C 224 153.829, 208.138 137.742, 188.750 118.495 L 153.500 83.500 188.495 118.750 L 223.489 154 118.264 154 L 13.038 154 12.749 176.250 C 12.590 188.488, 12.356 157.014, 12.230 106.309 C 12.103 55.604, 11.662 13.909, 11.250 13.654 C 10.838 13.399, 10.725 54.885, 11 105.845 M 14 48.487 L 14 83 48.013 83 L 82.026 83 81.763 48.750 L 81.500 14.500 47.750 14.237 L 14 13.973 14 48.487 M 188.993 47.750 L 161.500 75.500 189.250 48.007 C 215.038 22.458, 217.450 20, 216.743 20 C 216.602 20, 204.114 32.487, 188.993 47.750 M 156.946 79.750 L 153.500 83.500 157.250 80.054 C 159.313 78.158, 161 76.471, 161 76.304 C 161 75.540, 160.154 76.260, 156.946 79.750 M 83.237 118.250 L 83.500 152.500 151.250 152.757 C 188.512 152.898, 219 152.671, 219 152.251 C 219 151.832, 203.810 136.304, 185.245 117.744 L 151.489 84 117.231 84 L 82.974 84 83.237 118.250" stroke="none" fill="#faea07" fill-rule="evenodd"/></svg>